#!OML:ASF I:\Random Stuff\random\construction\7_22_03\Session 2\subj1.ASF
:FULLY-SPECIFIED
:DEGREES
1311
root -16.0973 17.8871 0.19931 -273.953 86.6725 -281.347
lowerback 6.22592 2.55246 3.80112
upperback 0.859833 3.68604 0.490711
thorax -2.39167 1.81307 -1.91758
lowerneck -19.5401 1.27888 2.76095
upperneck 42.7946 3.35359 -0.347387
head 20.1459 2.3847 0.322412
rclavicle -5.36719e-015 -2.3059e-014
rhumerus -30.0978 -0.916284 -75.5202
rradius 36.0788
rwrist 1.3547
rhand -19.8832 18.3109
rfingers 7.12502
rthumb 6.45257 -11.5708
lclavicle -5.36719e-015 -2.3059e-014
lhumerus -31.9409 -5.13626 88.7382
lradius 32.5355
lwrist 20.9979
lhand -19.8079 53.6841
lfingers 7.12502
lthumb 6.52528 83.5636
rfemur -7.08221 15.6408 20.5345
rtibia 10.5914
rfoot -9.43407 -23.084
rtoes -4.07717
lfemur -27.2023 2.78863 -19.6628
ltibia 35.1201
lfoot -12.2031 2.84311
ltoes -20.3335
1312
root -16.1427 17.8831 0.230532 -274.753 86.6562 -282.274
lowerback 6.07067 2.6353 3.88626
upperback 0.781777 3.79527 0.483285
thorax -2.37309 1.86553 -1.97437
lowerneck -19.3365 1.25765 2.86194
upperneck 42.8281 3.3339 -0.402637
head 20.1125 2.39593 0.271523
rclavicle -9.74045e-015 1.35174e-014
rhumerus -30.1363 -1.6798 -75.2066
rradius 34.3435
rwrist 2.98438
rhand -19.0627 18.0744
rfingers 7.12502
rthumb 7.24466 -11.7816
lclavicle -9.74045e-015 1.35174e-014
lhumerus -32.2482 -5.30468 88.6819
lradius 32.1461
lwrist 20.9744
lhand -19.7037 53.8711
lfingers 7.12502
lthumb 6.62586 83.7474
rfemur -7.71271 15.8751 20.5328
rtibia 11.2024
rfoot -9.68076 -23.2485
rtoes -3.8966
lfemur -26.8631 2.71098 -19.6646
ltibia 35.2926
lfoot -12.5387 2.77277
ltoes -19.5097
1313
root -16.185 17.8804 0.258848 -274.917 86.5223 -282.513
lowerback 5.94092 2.63882 3.73549
upperback 0.745879 3.78506 0.509653
thorax -2.34983 1.86161 -1.85682
lowerneck -19.2999 1.27354 2.96279
upperneck 42.931 3.3899 -0.510409
head 20.1794 2.42484 0.21509
rclavicle 5.76476e-015 -3.02153e-014
rhumerus -30.1251 -2.47811 -74.87
rradius 32.6464
rwrist 4.58383
rhand -18.5186 18.1678
rfingers 7.12502
rthumb 7.76981 -11.6695
lclavicle 5.76476e-015 -3.02153e-014
lhumerus -32.4618 -5.24451 88.6053
lradius 31.5699
lwrist 20.7575
lhand -19.5702 53.9519
lfingers 7.12502
lthumb 6.75473 83.8241
rfemur -8.28907 15.496 20.4185
rtibia 11.8326
rfoot -10.1159 -22.8144
rtoes -3.51029
lfemur -26.3856 2.4916 -19.7576
ltibia 35.3159
lfoot -12.781 2.40651
ltoes -18.5523
1314
root -16.2243 17.8759 0.286699 -274.086 86.3571 -281.693
lowerback 5.90627 2.6074 3.4854
upperback 0.713874 3.7264 0.530806
thorax -2.38418 1.83338 -1.69126
lowerneck -19.5821 1.21972 3.13343
upperneck 43.264 3.37125 -0.736726
head 20.5045 2.42169 0.0808287
rclavicle 2.78299e-015 3.18055e-015
rhumerus -30.2139 -3.46386 -74.4942
rradius 31.0849
rwrist 6.01562
rhand -18.1158 18.3427
rfingers 7.12502
rthumb 8.15858 -11.4798
lclavicle 2.78299e-015 3.18055e-015
lhumerus -32.6193 -5.20623 88.5039
lradius 30.8747
lwrist 20.4565
lhand -19.3214 54.0153
lfingers 7.12502
lthumb 6.99493 83.8797
rfemur -8.75385 15.0963 20.2911
rtibia 12.4297
rfoot -10.6527 -22.443
rtoes -3.08374
lfemur -25.7938 2.16182 -19.8509
ltibia 35.23
lfoot -12.9646 2.05724
ltoes -18.7713
1315
root -16.2595 17.8708 0.313502 -272.512 86.2883 -280.147
lowerback 5.86829 2.58669 3.40017
upperback 0.643345 3.69177 0.506293
thorax -2.44129 1.81445 -1.66686
lowerneck -19.5982 1.2743 2.847
upperneck 43.5278 3.34147 -0.102484
head 20.6633 2.46216 0.458628
rclavicle -2.80286e-014 -6.36111e-015
rhumerus -30.4927 -4.69636 -74.0817
rradius 29.7357
rwrist 7.16585
rhand -17.6643 18.4093
rfingers 7.12502
rthumb 8.59427 -11.3957
lclavicle -2.80286e-014 -6.36111e-015
lhumerus -32.7069 -5.21679 88.3645
lradius 30.0658
lwrist 19.9815
lhand -18.9593 53.9833
lfingers 7.12502
lthumb 7.34446 83.8358
rfemur -9.15575 14.8913 20.2555
rtibia 12.9238
rfoot -10.9441 -22.3273
rtoes -3.02608
lfemur -25.237 1.71298 -19.8016
ltibia 35.0978
lfoot -13.2317 1.86955
ltoes -19.2569
1316
root -16.2901 17.8672 0.338161 -270.683 86.3157 -278.343
lowerback 5.74216 2.56225 3.43119
upperback 0.614225 3.65529 0.479426
thorax -2.39903 1.79614 -1.70323
lowerneck -19.6672 1.20304 2.60737
upperneck 43.6513 3.13268 0.354691
head 20.7455 2.4102 0.694577
rclavicle 1.78906e-014 2.22639e-014
rhumerus -30.7677 -6.22413 -73.6192
rradius 28.483
rwrist 8.163
rhand -17.3671 18.2486
rfingers 7.12502
rthumb 8.88113 -11.5445
lclavicle 1.78906e-014 2.22639e-014
lhumerus -32.6645 -5.21406 88.183
lradius 29.2261
lwrist 19.4437
lhand -18.6554 54.1162
lfingers 7.12502
lthumb 7.63773 83.9583
rfemur -9.47333 14.6392 20.3213
rtibia 13.2887
rfoot -11.0583 -22.1605
rtoes -3.04632
lfemur -24.6708 1.19616 -19.6107
ltibia 34.9499
lfoot -13.5899 1.88075
ltoes -19.1439
1317
root -16.3183 17.8614 0.36273 -268.074 86.4052 -275.7
lowerback 5.64649 2.4992 3.4276
upperback 0.623288 3.56841 0.522004
thorax -2.34375 1.75442 -1.6462
lowerneck -19.7377 1.19724 2.85292
upperneck 43.6532 3.13315 0.083673
head 20.7838 2.41237 0.512896
rclavicle 1.59028e-015 6.36111e-015
rhumerus -31.0542 -7.64262 -73.1469
rradius 27.3799
rwrist 8.84928
rhand -17.6643 17.9535
rfingers 7.12502
rthumb 8.59433 -11.8516
lclavicle 1.59028e-015 6.36111e-015
lhumerus -32.5911 -5.18463 88.0214
lradius 28.4225
lwrist 18.9914
lhand -18.554 54.3727
lfingers 7.12502
lthumb 7.7356 84.2112
rfemur -9.67407 14.3572 20.4822
rtibia 13.5506
rfoot -11.2306 -22.0136
rtoes -3.10098
lfemur -24.0576 0.73103 -19.3509
ltibia 34.7669
lfoot -13.8177 1.96243
ltoes -19.7417
1318
root -16.3443 17.8558 0.388407 -264.494 86.4905 -272.08
lowerback 5.5735 2.412 3.39663
upperback 0.606395 3.44931 0.570701
thorax -2.3314 1.69571 -1.56768
lowerneck -19.7203 1.2484 2.72098
upperneck 43.6449 3.1261 0.39334
head 20.7593 2.43011 0.692829
rclavicle -2.08724e-014 -1.35174e-014
rhumerus -31.4674 -8.80577 -72.7354
rradius 26.503
rwrist 9.24193
rhand -18.1602 17.7861
rfingers 7.12502
rthumb 8.11573 -12.0381
lclavicle -2.08724e-014 -1.35174e-014
lhumerus -32.5121 -5.01076 87.8416
lradius 27.5335
lwrist 18.4267
lhand -18.6185 54.0418
lfingers 7.12502
lthumb 7.67335 83.8826
rfemur -9.84224 14.0227 20.6646
rtibia 13.7742
rfoot -11.3434 -21.8683
rtoes -3.22848
lfemur -23.4556 0.239065 -19.0699
ltibia 34.5168
lfoot -13.8694 1.62628
ltoes -18.8449
1319
root -16.3668 17.8531 0.411329 -261.001 86.4412 -268.549
lowerback 5.48653 2.34152 3.32379
upperback 0.566378 3.34639 0.526914
thorax -2.3307 1.64417 -1.56201
lowerneck -19.7217 1.19403 2.89484
upperneck 43.7006 3.10595 0.110795
head 20.8125 2.41572 0.514925
rclavicle 9.93923e-016 2.14687e-014
rhumerus -31.9459 -9.97274 -72.3528
rradius 25.7021
rwrist 9.5942
rhand -18.5073 17.7402
rfingers 7.12502
rthumb 7.7807 -12.0967
lclavicle 9.93923e-016 2.14687e-014
lhumerus -32.4141 -4.80087 87.6197
lradius 26.9244
lwrist 18.0526
lhand -18.3758 54.4369
lfingers 7.12502
lthumb 7.90764 84.269
rfemur -9.98262 13.8197 20.7006
rtibia 13.994
rfoot -11.3775 -21.8014
rtoes -2.8739
lfemur -22.8148 -0.265975 -18.904
ltibia 34.1869
lfoot -14.0068 1.4631
ltoes -17.9378
1320
root -16.3867 17.852 0.431178 -257.852 86.2838 -265.329
lowerback 5.42274 2.27006 3.1675
upperback 0.523112 3.23732 0.45679
thorax -2.34954 1.58977 -1.53783
lowerneck -19.6648 1.1776 2.82877
upperneck 43.7754 3.01324 0.355929
head 20.8373 2.40916 0.634203
rclavicle 1.86858e-014 4.13472e-014
rhumerus -32.4198 -10.8807 -72.0362
rradius 24.9844
rwrist 9.75524
rhand -18.7924 17.5982
rfingers 7.12502
rthumb 7.50558 -12.2486
lclavicle 1.86858e-014 4.13472e-014
lhumerus -32.3701 -4.66481 87.4518
lradius 26.3974
lwrist 17.6507
lhand -18.2821 54.2574
lfingers 7.12502
lthumb 7.99804 84.0861
rfemur -10.0532 13.8927 20.6158
rtibia 14.2107
rfoot -11.4521 -21.9883
rtoes -2.16436
lfemur -22.1086 -0.809513 -18.8379
ltibia 33.7804
lfoot -14.17 1.34295
ltoes -17.5049
1321
root -16.4049 17.8507 0.450491 -254.789 86.1758 -262.216
lowerback 5.31767 2.20083 3.01893
upperback 0.488644 3.13258 0.459062
thorax -2.33938 1.53863 -1.4418
lowerneck -19.5808 1.13253 2.71963
upperneck 43.7395 2.95253 0.431416
head 20.7795 2.3793 0.675854
rclavicle -2.82274e-014 3.97569e-015
rhumerus -32.8769 -11.4969 -71.7298
rradius 24.4264
rwrist 9.78235
rhand -18.78 17.4696
rfingers 7.12502
rthumb 7.51754 -12.3768
lclavicle -2.82274e-014 3.97569e-015
lhumerus -32.2876 -4.43938 87.349
lradius 25.9802
lwrist 17.143
lhand -17.9592 53.873
lfingers 7.12502
lthumb 8.30972 83.6895
rfemur -10.14 14.0896 20.586
rtibia 14.4317
rfoot -11.5351 -22.3515
rtoes -1.68756
lfemur -21.4307 -1.4115 -18.7008
ltibia 33.3024
lfoot -14.3297 1.23907
ltoes -18.1059
1322
root -16.4198 17.8471 0.466016 -251.963 86.1257 -259.344
lowerback 5.16011 2.14652 2.94071
upperback 0.477636 3.05056 0.482628
thorax -2.27164 1.49956 -1.36181
lowerneck -19.5898 1.08734 2.50748
upperneck 43.7187 2.91881 0.534777
head 20.7581 2.34408 0.758617
rclavicle 1.53064e-014 1.66979e-014
rhumerus -33.3316 -11.957 -71.481
rradius 23.9959
rwrist 9.85633
rhand -18.716 17.4371
rfingers 7.12502
rthumb 7.5793 -12.4071
lclavicle 1.53064e-014 1.66979e-014
lhumerus -32.1983 -4.40694 87.3982
lradius 25.9044
lwrist 17.2342
lhand -18.0847 54.2796
lfingers 7.12502
lthumb 8.18858 84.1009
rfemur -10.205 14.1241 20.6285
rtibia 14.5903
rfoot -11.5212 -22.5567
rtoes -1.46137
lfemur -20.7877 -1.89176 -18.5188
ltibia 32.7804
lfoot -14.5326 1.97963
ltoes -22.8567
1323
root -16.4314 17.8439 0.475859 -249.465 86.0178 -256.774
lowerback 4.99715 2.08145 2.8331
upperback 0.479326 2.95133 0.471849
thorax -2.18786 1.45228 -1.29935
lowerneck -19.6255 1.08169 2.45142
upperneck 43.7641 2.95339 0.508029
head 20.8009 2.34508 0.765736
rclavicle -2.5842e-014 -4.13472e-014
rhumerus -33.7823 -12.0887 -71.4431
rradius 23.6818
rwrist 9.90279
rhand -18.7198 17.4965
rfingers 7.12502
rthumb 7.57563 -12.3478
lclavicle -2.5842e-014 -4.13472e-014
lhumerus -32.1642 -4.34016 87.3865
lradius 25.9771
lwrist 17.1449
lhand -18.0717 54.2479
lfingers 7.12502
lthumb 8.20109 84.0687
rfemur -10.1791 13.9678 20.6089
rtibia 14.6558
rfoot -11.5007 -22.5143
rtoes -1.16702
lfemur -20.1349 -2.32381 -18.4071
ltibia 32.2351
lfoot -14.5114 2.1261
ltoes -24.1771
1324
root -16.4428 17.8451 0.483394 -247.347 85.945 -254.595
lowerback 4.83558 2.01199 2.76713
upperback 0.460747 2.84927 0.462088
thorax -2.12354 1.4026 -1.25987
lowerneck -19.5835 1.09594 2.50705
upperneck 43.7883 3.03012 0.362387
head 20.8122 2.3655 0.698967
rclavicle -1.68967e-014 3.97569e-015
rhumerus -34.2149 -12.0438 -71.5157
rradius 23.4507
rwrist 10.0413
rhand -18.5962 17.5574
rfingers 7.12502
rthumb 7.69487 -12.2826
lclavicle -1.68967e-014 3.97569e-015
lhumerus -32.1111 -4.20962 87.362
lradius 26.0592
lwrist 16.9268
lhand -17.9478 54.2331
lfingers 7.12502
lthumb 8.32072 84.0492
rfemur -10.174 13.815 20.6077
rtibia 14.7188
rfoot -11.5312 -22.4104
rtoes -0.807744
lfemur -19.4932 -2.80841 -18.2305
ltibia 31.653
lfoot -14.4257 2.2371
ltoes -22.6348
